ply
format ascii 1.0
comment VCGLIB generated
element vertex 5
property float x
property float y
property float z
property float nx
property float ny
property float nz
element face 6
property list uchar int vertex_indices
end_header
0.08926399 0.2319603 -6.525439 0.3430754 -0.6870612 0.2001884 
0.9800245 0.2444832 -6.522874 -0.324772 -0.6964504 0.1982656 
0.9800245 0.06575847 -5.650134 -0.324772 -0.5624515 -0.4560709 
0.08926399 0.05323553 -5.652699 0.3430754 -0.5530623 -0.4541481 
0.5141916 1.545099 -5.801857 0.01138772 -0.7774024 -0.159201 
3 1 3 0 
3 1 2 3 
3 0 1 4 
3 0 4 3 
3 3 4 2 
3 1 2 4 
